<?xml version="1.0" encoding="utf-8"?>
<!-- Generator: Adobe Illustrator 22.1.0, SVG Export Plug-In . SVG Version: 6.00 Build 0)  -->
<svg version="1.1" id="Layer_1" xmlns="http://www.w3.org/2000/svg" xmlns:xlink="http://www.w3.org/1999/xlink" x="0px" y="0px"
	 viewBox="0 0 1000 1000" style="enable-background:new 0 0 1000 1000;" xml:space="preserve">
<style type="text/css">
	.st0{fill:#112A54;stroke:#000000;stroke-miterlimit:10;}
	.st1{fill:#DB730B;}
	.st2{fill:#112A54;}
	.st3{fill:#DB730B;stroke:#112A54;stroke-miterlimit:10;}
</style>
<path class="st0" d="M706.2,775.5H264.8c-45.2,0-82.3-37-82.3-82.3V336.8c0-45.2,37-82.3,82.3-82.3h441.5c45.2,0,82.3,37,82.3,82.3
	v356.5C788.5,738.5,751.5,775.5,706.2,775.5z"/>
<g>
	<g>
		<g>
			<path class="st1" d="M269.6,715c-0.6,0-1.1-0.2-1.6-0.7c-2-2.1-2.7-8.6-2-19.7c0-0.1,0.2-10,14.6-25.4c0.1,0,0.2,0,0.3,0
				c1.5,0,3.6-2,5-11.5c0-0.1,0.2-2.7,7.9-2.7c1.1,0,2.3,0.1,3.5,0.2l0.2,0l0.2-0.1c17.8-14.8,27.9-25.9,28-26l0.5-0.5l-0.7-0.3
				c-0.2-0.1-22.1-9.4-21.2-17c0.4-3.5,5.8-6.2,16-8c0.5,0.2,2,0.8,4.5,0.8c7.5,0,23.3-5.3,44-41.1c8.1-11.3,14.3-19.8,19.1-26.4
				c15.4-21.3,15.4-21.3,16.8-26l0.2-0.8c0-0.2,0.1-0.5,0.9-0.5c1.9,0,6,1.9,11.8,4.5c15.4,7.1,44.1,20.2,81.3,20.2
				c8.2,0,16.5-0.7,24.7-1.9l0.1,0l0.1,0c0.5-0.2,1.2-0.7,1.1-1.5c-0.2-1.3-2.7-3.4-22.2-5.4c-27.8-3-69.9-18.1-77.7-27.8
				c-2.3-2.8-3.2-4.6-3-5.9c0.2-1.3,1.8-2.2,3.9-3.4c2.4-1.4,5.8-3.4,9.1-7.1c0.7-0.8,0.9-1.6,0.6-2.3c-0.6-1.3-3-3-17.7-3
				c-23.5,0-62.9,4.4-63.3,4.4l-0.8,0.1l0.5,0.7c0.1,0.1,8.6,12.7,1.1,18.3c-2.3,1.7-5.2,2.6-8.7,2.6c-6,0-11.7-2.6-11.8-2.6
				l-0.7-0.3l0,0.8c0,0.1-0.1,13.5-9.2,13.5c-4.1,0-9.5-2.7-16-7.9c-3.9-3.2-5.6-6.7-4.9-10.4c3.1-18.1,57.2-37.5,57.8-37.7
				c0.8-0.3,86.5-27.5,135.8-27.5c4,0,7.7,0.2,10.9,0.5l0.1,0l0.1,0c0.7-0.2,4-1.4,3.7-3.3c-0.2-1.6-2.7-3.9-21.8-5.7
				c-34.7,2-72.7,5-73.1,5l-0.3,0l-0.1,0.2c0,0,0,0,0,0c0,0-0.1,0-0.2,0c-1,0-5.3-1.4-20-19.1c-9.8-11.9-14.9-18.2-13.5-21.6
				c1.2-3,7.5-4.2,20.2-5.6c21-2.3,22.3-5.3,24.6-10.3c0.7-1.4,1.4-3.1,2.8-4.9c0.7-1,1.1-1,1.2-1c0.8,0,1.4,3.8,1.9,6.8
				c1.3,8,3.2,20,12.3,21.4c0.8,0.6,5.4,3.9,16,3.9c0,0,0,0,0,0c5.7,0,12.2-1,19.4-2.9c3.6-1,7.2-1.5,10.6-1.5
				c21.7,0,38.3,19.6,50.3,36.8l1,1.4l-0.1-1.8c0-0.6-3.6-64.8,25.5-96.2c10.4-11.2,23.9-17.1,40-17.3c1.5,0,3,0,4.4,0
				c68.2,0,85,22.6,85.2,22.8l0.1,0.1l0.1,0.1c0.1,0.1,8.5,5.4,15.6,17.1c6.5,10.8,13.2,29.3,8.3,56.6c-5-3.2-9.8-6.5-14.5-9.7
				c-14.3-9.8-26.6-18.3-38.1-18.3c-11.7,0-21.2,8.9-30,28.1c-4.8,10.5-5.1,19.2-0.9,25.7c7.9,12.4,30.2,15,47.4,15
				c10.7,0,19-1,19-1c0.1,0,2.3-0.6,4.6-0.6c1.9,0,4.4,0.4,5.4,2.1c1.1,1.9,0.2,5.2-2.5,9.8c-0.4,0.6-0.8,1.2-1.2,1.9
				c-0.2,0.3-0.5,0.7-0.7,1l0,0l0,0c0,0.1-4,9.4-15.2,18.6c-10.3,8.5-28.9,18.6-59.3,18.6c-4.1,0-8.4-0.2-12.8-0.6
				c-0.9-1.1-5.8-6.9-14.6-6.9c-4.7,0-9.7,1.7-14.9,4.9c-18.6,11.8-46.4,21.8-47.8,21.9c0,0,0,0,0,0c-0.6,0-1.9,0.6-1.9,1.6
				c0,1.1,1.6,1.5,2.8,1.8c2.1,0.4,5.5,0.7,10.1,0.7c12.6,0,39.6,5.9,48.8,17.6c2.8,3.6,3.8,7.6,2.7,11.7
				c-4.9,19.5-12.7,31.6-30.8,47.7c-18.1,16.1-46,26.9-60.7,26.9h-0.1l-0.1,0.1c-0.5,0.3-45.3,26.3-60.1,46.1
				c-6.3,8.4-13.2,14.1-17.3,14.1c-1.1,0-1.8-0.4-2.3-1.2c-0.9-1.4-2.2-6.5,5.4-22.2c1.3-0.7,10.4-6.3,15.1-24.2
				c2.3-5.9,6.4-6.4,11.5-6.4l1.2,0c3.9,0,8.7,0,11.3-5.5c1.1-2.4,2.2-4.4,3-5.9c3.2-5.8,4.2-7.8-3.2-12.7l-0.3-0.2
				c-4.4-2.9-9.3-6.2-8.8-9.9c0.5-4,7.6-8.4,21-13l2.8-1h-3c-26.7,0-41.9,1-42,1l-0.3,0l-0.1,0.2c-0.4,0.6-37.3,61.8-75.6,66.8
				c-0.8-0.1-11.1-1.2-17.7-5.9l-0.3-0.2l-0.3,0.2c-4.9,3-11.3,5.7-18,8.5c-15.4,6.3-34.5,14.2-47.1,31.7
				C282,704.2,273.9,715,269.6,715z"/>
			<path class="st2" d="M613.4,315c19.6,0,47.3,2,68.1,11.3c12.5,5.6,16.6,11.2,16.6,11.3l0.1,0.2l0.2,0.1c0.1,0.1,8.4,5.3,15.5,17
				c6.4,10.6,12.9,28.8,8.3,55.5c-4.8-3.1-9.4-6.2-13.8-9.3c-14.3-9.9-26.7-18.4-38.4-18.4c-11.9,0-21.6,9-30.5,28.4
				c-4.9,10.7-5.2,19.5-0.9,26.2c8.1,12.6,30.5,15.2,47.8,15.2c10.7,0,19-1,19.1-1l0.1,0l0.1,0c0,0,2.1-0.5,4.4-0.5
				c1.8,0,4.1,0.3,4.9,1.8c0.7,1.2,0.8,3.8-2.5,9.3c-0.4,0.6-0.8,1.2-1.2,1.8c-0.2,0.3-0.5,0.7-0.7,1l-0.1,0.1l0,0.1
				c0,0.1-4,9.3-15,18.4c-10.2,8.5-28.8,18.6-59.1,18.6c-4,0-8.3-0.2-12.5-0.5c-1.2-1.5-6.2-6.9-14.9-6.9c-4.8,0-9.9,1.7-15.2,5
				c-18.7,11.8-45.7,21.5-47.5,21.8c-0.9,0-2.4,0.8-2.4,2.1c0,1.6,2.3,2.1,3.2,2.3c2.2,0.4,5.6,0.7,10.2,0.7
				c12.5,0,39.3,5.8,48.4,17.5c2.7,3.5,3.6,7.3,2.6,11.3c-4.9,19.4-12.6,31.4-30.7,47.5c-18,16-45.7,26.7-60.3,26.7h-0.3l-0.2,0.1
				c-1.8,1.1-45.3,26.3-60.3,46.3c-7.2,9.6-13.6,13.9-16.9,13.9c-0.9,0-1.5-0.3-1.9-1c-0.7-1.1-2.3-5.8,5.3-21.6
				c1.8-1,10.6-6.9,15.2-24.4c2.2-5.6,6-6.1,11-6.1l0.6,0l0.6,0c3.8,0,9.1,0,11.7-5.8c1.1-2.4,2.1-4.3,3-5.9
				c3.4-6.2,4.1-8.4-3.4-13.3l-0.3-0.2c-4.2-2.8-9.1-6-8.6-9.4c0.5-3.8,7.5-8.1,20.7-12.6l5.7-1.9h-6c-26.7,0-41.9,1-42.1,1l-0.5,0
				l-0.3,0.5c-0.4,0.6-37.1,61.5-75.2,66.5c-1.1-0.1-11.1-1.3-17.4-5.8l-0.5-0.4l-0.6,0.4c-4.8,3-11.2,5.6-17.9,8.4
				c-15.4,6.4-34.7,14.3-47.3,31.9c-7.9,10.9-17.7,24.6-22.1,24.6c-0.5,0-0.9-0.2-1.2-0.6c-1.9-2-2.5-8.5-1.9-19.4l0,0l0,0
				c0-0.1,0.3-9.7,14.3-24.9c0,0,0.1,0,0.1,0c2.5,0,4.3-3.9,5.5-12l0,0l0-0.1c0.1-0.6,1.7-2.2,7.4-2.2c1.1,0,2.2,0.1,3.5,0.2l0.4,0
				l0.3-0.3c17.8-14.9,28-26,28.1-26.1l0.9-1l-1.3-0.5c-6.1-2.6-21.6-10.5-20.9-16.5c0.3-2.2,3.1-5.4,15.4-7.6
				c0.7,0.3,2.2,0.8,4.6,0.8c7.6,0,23.6-5.4,44.4-41.3c8.1-11.3,14.5-20,19.1-26.4c15.5-21.4,15.5-21.4,16.8-26.1l0.2-0.8
				c0,0,0,0,0,0c0,0,0.1-0.1,0.4-0.1c1.8,0,6.1,2,11.6,4.5c15.5,7.1,44.2,20.3,81.5,20.3c8.2,0,16.6-0.7,24.7-1.9l0.1,0l0.1,0
				c0.8-0.3,1.5-1.1,1.4-2c-0.2-1.1-0.5-3.5-22.7-5.9c-27.7-3-69.6-17.9-77.3-27.6c-2.1-2.7-3-4.4-2.9-5.5c0.2-1,1.6-1.9,3.6-3.1
				c2.5-1.5,5.8-3.4,9.2-7.2c1.1-1.2,1-2.2,0.7-2.8c-0.7-1.6-3.5-3.3-18.2-3.3c-23.5,0-63,4.4-63.4,4.5l-1.7,0.2l1,1.4
				c0.1,0.1,8.4,12.3,1.2,17.6c-2.2,1.6-5,2.5-8.4,2.5c-5.9,0-11.5-2.5-11.6-2.6l-1.4-0.7l0,1.6c0,0.1-0.1,13-8.7,13
				c-4,0-9.3-2.6-15.7-7.8c-3.8-3.1-5.4-6.3-4.7-9.9c1.2-7.3,11.5-16.1,29.7-25.3c13.9-7.1,27.6-12,27.7-12
				c0.9-0.3,86.5-27.5,135.7-27.5c4,0,7.6,0.2,10.9,0.5l0.2,0l0.2-0.1c1-0.3,4.3-1.6,4.1-3.8c-0.2-2-3.1-4.4-22.3-6.1l-0.1,0l-0.1,0
				c-34.6,2-72.6,5-73,5l-0.6,0l-0.1,0.2c-0.9-0.1-5.2-1.6-19.5-18.9c-9.4-11.4-14.7-18-13.4-21.1c1.1-2.7,7.5-3.9,19.7-5.3
				c20.4-2.3,22.5-5,25-10.6c0.6-1.4,1.4-3,2.7-4.8c0.4-0.5,0.6-0.7,0.7-0.8c0.6,0.7,1.1,3.8,1.5,6.4c1.3,8.1,3.3,20.3,12.6,21.8
				c1.1,0.8,5.9,3.9,16.2,3.9c5.8,0,12.3-1,19.5-2.9c3.5-1,7.1-1.4,10.5-1.4c9.4,0,18.2,3.5,27.2,10.7c7.2,5.8,14.5,14.1,22.7,25.8
				l2,2.9l-0.2-3.5c0-0.2-1-16.3,1.7-36.1c2.4-18.2,8.5-43.4,23.7-59.7C579.7,321,593,315.2,609,315C610.5,315,612,315,613.4,315
				 M613.4,314c-1.4,0-2.9,0-4.4,0c-73,1-66,114-66,114c-14.1-20.1-30.1-37-50.8-37c-3.4,0-7,0.5-10.7,1.5
				c-7.9,2.1-14.3,2.9-19.2,2.9c-11.4,0-15.8-3.9-15.8-3.9c-13.4-1.8-10.8-28.2-14.4-28.2c-0.4,0-0.9,0.4-1.6,1.2c-6,8,0,12-27,15
				s-26,5-7,28c14.1,17.1,18.8,19.3,20.3,19.3c0.5,0,0.7-0.3,0.7-0.3s38-3,73-5c33,3,18,8,18,8c-3.4-0.4-7.1-0.5-11-0.5
				c-50,0-136,27.5-136,27.5s-79,28-53,49c7.3,5.9,12.5,8,16.3,8c9.7,0,9.7-14,9.7-14s5.8,2.7,12,2.7c3.1,0,6.3-0.7,9-2.7
				c8-6-1-19-1-19s39.6-4.4,63.3-4.4c11.9,0,19.7,1.1,16.7,4.4c-9,10-18,7-10,17s50,25,78,28s21,6,21,6c-8.6,1.3-16.8,1.9-24.6,1.9
				c-51,0-85.7-24.8-93-24.8c-0.7,0-1.2,0.3-1.4,0.8c-2,7,0,3-36,53c-20.7,35.7-36.3,40.8-43.6,40.8c-2.9,0-4.4-0.8-4.4-0.8
				c-40,7,5,26,5,26s-10,11-28,26c-1.3-0.1-2.5-0.2-3.6-0.2c-8.4,0-8.4,3.2-8.4,3.2c-1.5,9.9-3.6,11.1-4.6,11.1
				c-0.3,0-0.4-0.1-0.4-0.1c-15,16-15,26-15,26c-0.9,15,0.7,21,4.1,21c4.6,0,12.6-10.7,22.9-25c18-25,49-30,65-40c7,5,18,6,18,6
				c39-5,76-67,76-67s15-1,42-1c-32,11-21,18-12,24s5,7,0,18c-2.3,5-6.5,5.3-10.8,5.3c-0.4,0-0.8,0-1.2,0c-4.8,0-9.5,0.2-12,6.8
				c-5,19-15,24-15,24c-8.2,16.9-7.4,24.3-2.7,24.3c4,0,10.8-5.2,17.7-14.3c15-20,60-46,60-46c15,0,43-11,61-27s26-28,31-48
				s-35-30-52-30s-12-3-11-3s29-10,48-22c5.7-3.6,10.6-4.9,14.6-4.9c9.5,0,14.4,6.9,14.4,6.9c4.6,0.4,8.9,0.6,13,0.6
				c59.2,0,75-37.6,75-37.6c0.3-0.4,0.5-0.7,0.7-1.1c0.4-0.7,0.8-1.3,1.2-1.9c6.5-10.7,1.2-12.6-3.3-12.6c-2.4,0-4.7,0.6-4.7,0.6
				s-8.2,1-19,1c-24.4,0-62-5.3-46-40c9.4-20.5,19.1-27.8,29.6-27.8c15.2,0,32.2,15.3,52.9,28.3c10-54-24-75-24-75
				S682.7,314,613.4,314L613.4,314z"/>
		</g>
		<path class="st3" d="M674.5,398.5l34,24C708.5,422.5,670.5,430.5,674.5,398.5z"/>
	</g>
	<g>
		<polygon class="st1" points="230.3,659.1 264.8,668.5 260.6,678.2 		"/>
		<path class="st2" d="M233.4,660.5l30.7,8.4l-3.8,8.6L233.4,660.5 M227.2,657.7l33.6,21.2l4.7-10.7L227.2,657.7L227.2,657.7z"/>
	</g>
	<g>
		<polygon class="st1" points="223,640.2 270.8,655.5 266.5,665.2 		"/>
		<path class="st2" d="M227.3,642.1l42.8,13.7l-3.8,8.7L227.3,642.1 M218.6,638.3l48.2,27.6l4.7-10.7L218.6,638.3L218.6,638.3z"/>
	</g>
</g>
</svg>
